<svg width="16" height="17" viewBox="0 0 16 17" fill="none" xmlns="http://www.w3.org/2000/svg">
<path d="M13.9333 2.27466H2.06668C1.87218 2.27466 1.68566 2.35192 1.54813 2.48945C1.41061 2.62697 1.33334 2.8135 1.33334 3.00799V14.8747C1.33334 15.0691 1.41061 15.2557 1.54813 15.3932C1.68566 15.5307 1.87218 15.608 2.06668 15.608H8.45334V10.4413H6.72001V8.44132H8.45334V6.94132C8.41744 6.58916 8.45901 6.23341 8.57515 5.89902C8.69129 5.56462 8.87919 5.25969 9.12565 5.0056C9.37212 4.75151 9.67119 4.55442 10.0019 4.42815C10.3326 4.30188 10.6869 4.24949 11.04 4.27466C11.5589 4.27146 12.0775 4.29818 12.5933 4.35466V6.15466H11.5333C10.6933 6.15466 10.5333 6.55466 10.5333 7.13466V8.42132H12.5333L12.2733 10.4213H10.5333V15.608H13.9333C14.0296 15.608 14.125 15.589 14.214 15.5522C14.3029 15.5153 14.3838 15.4613 14.4519 15.3932C14.52 15.3251 14.574 15.2443 14.6109 15.1553C14.6477 15.0663 14.6667 14.971 14.6667 14.8747V3.00799C14.6667 2.91169 14.6477 2.81633 14.6109 2.72736C14.574 2.63838 14.52 2.55754 14.4519 2.48945C14.3838 2.42135 14.3029 2.36733 14.214 2.33048C14.125 2.29363 14.0296 2.27466 13.9333 2.27466Z" fill="#D7B865"/>
</svg>
