<svg width="20" height="21" viewBox="0 0 20 21" fill="none" xmlns="http://www.w3.org/2000/svg">
<path d="M10.8567 2.60815C11.7942 2.61065 12.27 2.61565 12.6808 2.62732L12.8425 2.63315C13.0292 2.63982 13.2133 2.64815 13.4358 2.65815C14.3225 2.69982 14.9275 2.83982 15.4583 3.04565C16.0083 3.25732 16.4717 3.54399 16.935 4.00649C17.3588 4.42307 17.6866 4.92698 17.8958 5.48315C18.1017 6.01399 18.2417 6.61899 18.2833 7.50649C18.2933 7.72815 18.3017 7.91232 18.3083 8.09982L18.3133 8.26149C18.3258 8.67149 18.3308 9.14732 18.3325 10.0848L18.3333 10.7065V11.7982C18.3354 12.406 18.329 13.0138 18.3142 13.6215L18.3092 13.7832C18.3025 13.9707 18.2942 14.1548 18.2842 14.3765C18.2425 15.264 18.1008 15.8682 17.8958 16.3998C17.6872 16.9563 17.3593 17.4603 16.935 17.8765C16.5183 18.3001 16.0144 18.6279 15.4583 18.8373C14.9275 19.0432 14.3225 19.1832 13.4358 19.2248C13.2381 19.2341 13.0403 19.2425 12.8425 19.2498L12.6808 19.2548C12.27 19.2665 11.7942 19.2723 10.8567 19.274L10.235 19.2748H9.14418C8.53606 19.2769 7.92795 19.2705 7.32001 19.2557L7.15835 19.2507C6.96052 19.2432 6.76274 19.2346 6.56501 19.2248C5.67835 19.1832 5.07335 19.0432 4.54168 18.8373C3.98557 18.6285 3.48186 18.3005 3.06585 17.8765C2.64172 17.4601 2.31353 16.9561 2.10418 16.3998C1.89835 15.869 1.75835 15.264 1.71668 14.3765C1.7074 14.1788 1.69906 13.981 1.69168 13.7832L1.68751 13.6215C1.67216 13.0138 1.66521 12.406 1.66668 11.7982V10.0848C1.66435 9.47699 1.67047 8.86915 1.68501 8.26149L1.69085 8.09982C1.69751 7.91232 1.70585 7.72815 1.71585 7.50649C1.75751 6.61899 1.89751 6.01482 2.10335 5.48315C2.31261 4.92641 2.64145 4.42234 3.06668 4.00649C3.48259 3.58272 3.98597 3.25481 4.54168 3.04565C5.07335 2.83982 5.67751 2.69982 6.56501 2.65815C6.78668 2.64815 6.97168 2.63982 7.15835 2.63315L7.32001 2.62815C7.92767 2.61335 8.53551 2.60696 9.14335 2.60899L10.8567 2.60815ZM10 6.77482C8.89494 6.77482 7.83514 7.21381 7.05373 7.99521C6.27233 8.77661 5.83335 9.83642 5.83335 10.9415C5.83335 12.0466 6.27233 13.1064 7.05373 13.8878C7.83514 14.6692 8.89494 15.1082 10 15.1082C11.1051 15.1082 12.1649 14.6692 12.9463 13.8878C13.7277 13.1064 14.1667 12.0466 14.1667 10.9415C14.1667 9.83642 13.7277 8.77661 12.9463 7.99521C12.1649 7.21381 11.1051 6.77482 10 6.77482ZM10 8.44149C10.3283 8.44143 10.6534 8.50604 10.9568 8.63163C11.2601 8.75722 11.5357 8.94132 11.7679 9.17343C12.0001 9.40553 12.1843 9.6811 12.31 9.98439C12.4357 10.2877 12.5004 10.6128 12.5004 10.9411C12.5005 11.2694 12.4359 11.5945 12.3103 11.8978C12.1847 12.2011 12.0006 12.4768 11.7685 12.709C11.5364 12.9411 11.2608 13.1253 10.9575 13.251C10.6542 13.3767 10.3292 13.4414 10.0008 13.4415C9.33781 13.4415 8.70192 13.1781 8.23308 12.7093C7.76424 12.2404 7.50085 11.6045 7.50085 10.9415C7.50085 10.2784 7.76424 9.64256 8.23308 9.17372C8.70192 8.70488 9.33781 8.44149 10.0008 8.44149M14.3758 5.52482C14.0996 5.52482 13.8346 5.63457 13.6393 5.82992C13.4439 6.02527 13.3342 6.29022 13.3342 6.56649C13.3342 6.84275 13.4439 7.10771 13.6393 7.30306C13.8346 7.49841 14.0996 7.60815 14.3758 7.60815C14.6521 7.60815 14.9171 7.49841 15.1124 7.30306C15.3078 7.10771 15.4175 6.84275 15.4175 6.56649C15.4175 6.29022 15.3078 6.02527 15.1124 5.82992C14.9171 5.63457 14.6521 5.52482 14.3758 5.52482Z" fill="#D7B865"/>
</svg>
