<svg width="80" height="81" viewBox="0 0 80 81" fill="none" xmlns="http://www.w3.org/2000/svg">
<path d="M40 34.2745L26.6667 15.6078L32 7.60779H48L53.3333 15.6078L40 34.2745ZM51.6667 23.6078L47.6667 29.2745C55 32.2745 60 39.2745 60 47.6078C60 52.9121 57.8929 57.9992 54.1421 61.7499C50.3914 65.5007 45.3043 67.6078 40 67.6078C34.6957 67.6078 29.6086 65.5007 25.8579 61.7499C22.1071 57.9992 20 52.9121 20 47.6078C20 39.2745 25 32.2745 32.3333 29.2745L28.3333 23.6078C19.3333 27.9411 13.3333 36.9411 13.3333 47.6078C13.3333 54.6802 16.1429 61.463 21.1438 66.464C26.1448 71.4649 32.9276 74.2745 40 74.2745C47.0724 74.2745 53.8552 71.4649 58.8562 66.464C63.8572 61.463 66.6667 54.6802 66.6667 47.6078C66.6667 36.9411 60.6667 27.9411 51.6667 23.6078Z" fill="#D7B865"/>
</svg>
