<svg width="20" height="21" viewBox="0 0 20 21" fill="none" xmlns="http://www.w3.org/2000/svg">
<path d="M8.33332 13.4415L12.6583 10.9415L8.33332 8.44149V13.4415ZM17.9667 6.91649C18.075 7.30815 18.15 7.83315 18.2 8.49982C18.2583 9.16649 18.2833 9.74149 18.2833 10.2415L18.3333 10.9415C18.3333 12.7665 18.2 14.1082 17.9667 14.9665C17.7583 15.7165 17.275 16.1998 16.525 16.4082C16.1333 16.5165 15.4167 16.5915 14.3167 16.6415C13.2333 16.6998 12.2417 16.7248 11.325 16.7248L9.99999 16.7748C6.50832 16.7748 4.33332 16.6415 3.47499 16.4082C2.72499 16.1998 2.24166 15.7165 2.03332 14.9665C1.92499 14.5748 1.84999 14.0498 1.79999 13.3832C1.74166 12.7165 1.71666 12.1415 1.71666 11.6415L1.66666 10.9415C1.66666 9.11649 1.79999 7.77482 2.03332 6.91649C2.24166 6.16649 2.72499 5.68315 3.47499 5.47482C3.86666 5.36649 4.58332 5.29149 5.68332 5.24149C6.76666 5.18315 7.75832 5.15815 8.67499 5.15815L9.99999 5.10815C13.4917 5.10815 15.6667 5.24149 16.525 5.47482C17.275 5.68315 17.7583 6.16649 17.9667 6.91649Z" fill="#D7B865"/>
</svg>
